<?xml version="1.0" encoding="UTF-8"?>
<svg width="42px" height="42px" viewBox="0 0 42 42" version="1.1" xmlns="http://www.w3.org/2000/svg" xmlns:xlink="http://www.w3.org/1999/xlink">
    <!-- Generator: Sketch 46.2 (44496) - http://www.bohemiancoding.com/sketch -->
    <title>bank(2)</title>
    <desc>Created with Sketch.</desc>
    <defs></defs>
    <g id="Landing-Page-New" stroke="none" stroke-width="1" fill="none" fill-rule="evenodd">
        <g id="Desktop-HD-Copy-11" transform="translate(-1267.000000, -774.000000)" fill-rule="nonzero">
            <g id="bank(2)" transform="translate(1267.000000, 774.000000)">
                <path d="M38.8881679,15.3777364 L41.993047,15.3707729 L41.993047,11.9287338 L21.4965235,1 L1,11.9287338 L1,15.4400872 L4.10487909,15.4331236 L4.10487909,18.6189033 L5.4878799,18.6189033 L5.49483288,35.5037392 L4.10487909,35.5037392 L4.10487909,38.7518696 L1,38.7518696 L1,42 L42,42 L42,38.7518696 L38.8951209,38.7518696 L38.8951209,35.5037392 L37.4982141,35.5037392 L37.4912612,18.6189033 L38.8950139,18.6189033 L38.8950139,15.3777364 L38.8881679,15.3777364 Z M19.6432874,18.6190104 L19.6432874,15.4124472 L23.3429136,15.4054836 L23.3429136,18.6190104 L24.7466664,18.6190104 L24.7536193,35.5038463 L23.3498665,35.5038463 L23.3498665,38.7519767 L19.6502404,38.7519767 L19.6502404,35.5038463 L18.2395347,35.5038463 L18.2325817,18.6190104 L19.6432874,18.6190104 L19.6432874,18.6190104 Z M8.59971197,35.5038463 L8.59275899,18.6190104 L9.98966576,18.6190104 L9.98966576,15.4262672 L13.7583938,15.4193036 L13.7583938,18.6190104 L15.1137966,18.6190104 L15.1207496,35.5038463 L13.7585008,35.5038463 L13.7585008,38.7519767 L9.98966576,38.7519767 L9.98966576,35.5038463 L8.59971197,35.5038463 Z M29.2345463,38.7519767 L29.2345463,35.5038463 L27.8653444,35.5038463 L27.8583914,18.6190104 L29.2345463,18.6190104 L29.2345463,15.3916636 L33.0032743,15.3847 L33.0032743,18.6120468 L34.3794291,18.6120468 L34.3863821,35.4968827 L33.0033813,35.4968827 L33.0033813,38.7450131 L29.2346532,38.7450131 L29.2346532,38.7519767 L29.2345463,38.7519767 Z" id="Shape" fill="#FFFFFF"></path>
                <polygon id="Shape" fill="#2EA2DB" points="5 12 21.0033918 3 37 12"></polygon>
                <g id="Group" fill="#193651">
                    <path d="M41.9682879,37.5047273 L38.8897727,37.5047273 L38.8897727,34.2890758 L37.5116212,34.2890758 L37.5116212,18.9512273 L38.8897727,18.9512273 L38.8897727,15.7355758 L41.9682879,15.7355758 L41.9682879,11.2102879 L20.9875909,0 L0.00689393939,11.2171818 L0.00689393939,15.6738485 L3.08540909,15.6738485 L3.08540909,18.8895 L4.46356061,18.8895 L4.46356061,34.2342424 L3.08540909,34.2342424 L3.08540909,37.4498939 L0.00689393939,37.4498939 L0.00689393939,41.9751818 L41.9682879,41.9751818 L41.9682879,37.5047273 Z M37.5733485,35.6055 L37.5733485,37.5047273 L33.0480606,37.5047273 L33.0480606,35.6055 L37.5733485,35.6055 Z M31.7384242,37.5047273 L29.3112273,37.5047273 L29.3112273,34.2890758 L27.9331818,34.2890758 L27.9331818,18.9512273 L29.3113333,18.9512273 L29.3113333,15.7355758 L31.7385303,15.7355758 L31.7385303,18.9512273 L33.1166818,18.9512273 L33.1166818,34.2959697 L31.7385303,34.2959697 L31.7385303,37.5047273 L31.7384242,37.5047273 Z M22.1668788,37.5047273 L19.7396818,37.5047273 L19.7396818,34.2890758 L18.3615303,34.2890758 L18.3615303,18.9512273 L19.7396818,18.9512273 L19.7396818,15.7355758 L22.1668788,15.7355758 L22.1668788,18.9512273 L23.5450303,18.9512273 L23.5450303,34.2959697 L22.1668788,34.2959697 L22.1668788,37.5047273 Z M12.6638485,37.5047273 L10.2366515,37.5047273 L10.2366515,34.2890758 L8.8585,34.2890758 L8.8585,18.9512273 L10.2366515,18.9512273 L10.2366515,15.7355758 L12.6638485,15.7355758 L12.6638485,18.9512273 L14.042,18.9512273 L14.042,34.2959697 L12.6638485,34.2959697 L12.6638485,37.5047273 L12.6638485,37.5047273 Z M13.9733788,17.6415909 L13.9733788,15.7423636 L18.4986667,15.7423636 L18.4986667,17.6415909 L13.9733788,17.6415909 Z M17.1205152,34.2959697 L15.3515303,34.2959697 L15.3515303,18.9512273 L17.1205152,18.9512273 L17.1205152,34.2959697 Z M18.4301515,35.5369848 L18.4301515,37.5733485 L13.9048636,37.5733485 L13.9048636,35.6055 L18.4301515,35.5369848 Z M23.4764091,17.6415909 L23.4764091,15.7423636 L28.001697,15.7423636 L28.001697,17.6415909 L23.4764091,17.6415909 Z M26.6235455,34.2959697 L24.8545606,34.2959697 L24.8545606,18.9512273 L26.6235455,18.9512273 L26.6235455,34.2959697 Z M28.001697,35.6055 L28.001697,37.5047273 L23.4764091,37.5047273 L23.4764091,35.6055 L28.001697,35.6055 Z M34.4262121,18.9512273 L36.195197,18.9512273 L36.195197,34.2959697 L34.4262121,34.2959697 L34.4262121,18.9512273 Z M33.0549545,17.6415909 L33.0549545,15.7423636 L37.5802424,15.7423636 L37.5802424,17.6415909 L33.0549545,17.6415909 Z M1.31642424,14.4259394 L1.31642424,12.0673636 L20.9875909,1.57701515 L40.6587576,12.0673636 L40.6587576,14.4259394 L1.31642424,14.4259394 Z M4.40183333,17.6415909 L4.40183333,15.7423636 L8.92712121,15.7423636 L8.92712121,17.6415909 L4.40183333,17.6415909 Z M7.5489697,34.2959697 L5.77998485,34.2959697 L5.77998485,18.9512273 L7.5489697,18.9512273 L7.5489697,34.2959697 Z M8.92712121,35.6055 L8.92712121,37.5047273 L4.40183333,37.5047273 L4.40183333,35.6055 L8.92712121,35.6055 Z M1.31642424,40.7821061 L1.31642424,38.8828788 L40.6586515,38.8828788 L40.6586515,40.7821061 L1.31642424,40.7821061 Z" id="Shape"></path>
                    <rect id="Rectangle-path" x="16.0029545" y="8.72136364" width="1.3095303" height="1.3095303"></rect>
                    <rect id="Rectangle-path" x="20.3293788" y="8.72136364" width="1.3095303" height="1.3095303"></rect>
                    <rect id="Rectangle-path" x="24.655803" y="8.72136364" width="1.3095303" height="1.3095303"></rect>
                </g>
            </g>
        </g>
    </g>
</svg>