<?xml version="1.0" encoding="UTF-8"?>
<svg width="47px" height="46px" viewBox="0 0 47 46" version="1.1" xmlns="http://www.w3.org/2000/svg" xmlns:xlink="http://www.w3.org/1999/xlink">
    <!-- Generator: Sketch 46.2 (44496) - http://www.bohemiancoding.com/sketch -->
    <title>Group 24</title>
    <desc>Created with Sketch.</desc>
    <defs>
        <rect id="path-1" x="0" y="0" width="22" height="22" rx="6"></rect>
        <rect id="path-2" x="0" y="24" width="22" height="22" rx="6"></rect>
        <rect id="path-3" x="25" y="13" width="22" height="22" rx="6"></rect>
    </defs>
    <g id="Landing-Page-New" stroke="none" stroke-width="1" fill="none" fill-rule="evenodd">
        <g id="Desktop-HD-Copy-11" transform="translate(-935.000000, -775.000000)">
            <g id="Group-24" transform="translate(935.000000, 775.000000)">
                <g id="Rectangle-4-Copy">
                    <use fill="#7ED321" fill-rule="evenodd" xlink:href="#path-1"></use>
                    <rect stroke="#000000" stroke-width="2" x="1" y="1" width="20" height="20" rx="6"></rect>
                </g>
                <path d="M14.5766504,7.71872715 C14.525575,7.66759205 14.4602009,7.64206928 14.380737,7.64206928 L12.9234018,7.64206928 C12.8267437,7.17062941 12.6449201,6.76139942 12.3779012,6.41482709 L14.3636024,6.41482709 C14.4432753,6.41482709 14.5084703,6.38927447 14.5597248,6.33825878 C14.6105912,6.28715354 14.6361438,6.22174958 14.6361438,6.142226 L14.6361438,5.27272049 C14.6361438,5.19313721 14.6106211,5.12785265 14.5597248,5.07668771 C14.5084106,5.02564217 14.4432156,5 14.3635427,5 L7.27269064,5 C7.19310736,5 7.1278228,5.02564217 7.07665786,5.07665786 C7.02564217,5.1278228 7,5.19310736 7,5.27269064 L7,6.40620009 C7,6.48005194 7.02698548,6.54396334 7.08095643,6.5979343 C7.13492739,6.65190525 7.19883879,6.67889073 7.27269064,6.67889073 L8.50850013,6.67889073 C9.70729414,6.67889073 10.4686786,6.99982089 10.7925044,7.64192003 L7.27269064,7.64192003 C7.19310736,7.64192003 7.12773325,7.6674428 7.07665786,7.71857789 C7.02564217,7.76977268 7,7.83502739 7,7.91461067 L7,8.78399678 C7,8.86352035 7.02552277,8.92889446 7.07665786,8.97991015 C7.1278228,9.03110494 7.19322676,9.05656801 7.27269064,9.05656801 L10.9119987,9.05656801 C10.7869819,9.52260481 10.4957537,9.87765489 10.038314,10.1219869 C9.58084449,10.3663488 8.97728324,10.4885297 8.2272422,10.4885297 L7.27269064,10.4885297 C7.19883879,10.4885297 7.13492739,10.515545 7.08095643,10.5694861 C7.02695563,10.6234869 7,10.6874282 7,10.7612203 L7,11.8437141 C7,11.9176853 7.02552277,11.9801639 7.07665786,12.0312393 C8.16750996,13.1903013 9.58233705,14.8123256 11.32096,16.8977298 C11.3721548,16.9659696 11.4431409,17 11.5340677,17 L13.1959432,17 C13.3153778,17 13.3978268,16.9490142 13.4431409,16.846535 C13.4999478,16.7442648 13.4888133,16.6476664 13.409021,16.5567397 C11.7501306,14.5225899 10.4460514,12.9998806 9.4971716,11.9885521 C10.4630965,11.8749384 11.2471977,11.5623666 11.8495052,11.0511052 C12.4517232,10.5397842 12.8181465,9.87487873 12.9489246,9.05671726 L14.380737,9.05671726 C14.4602009,9.05671726 14.5256049,9.03122435 14.5766504,8.9800594 C14.6278452,8.92904372 14.6534575,8.86366961 14.6534575,8.78414603 L14.6534575,7.91484948 C14.6534575,7.83517664 14.6278452,7.76989209 14.5766504,7.71872715 Z" id="Shape-Copy" fill="#FFFFFF" fill-rule="nonzero"></path>
                <g id="Rectangle-4-Copy-3">
                    <use fill="#7ED321" fill-rule="evenodd" xlink:href="#path-2"></use>
                    <rect stroke="#000000" stroke-width="2" x="1" y="25" width="20" height="20" rx="6"></rect>
                </g>
                <g id="Rectangle-4-Copy-4">
                    <use fill="#7ED321" fill-rule="evenodd" xlink:href="#path-3"></use>
                    <rect stroke="#000000" stroke-width="2" x="26" y="14" width="20" height="20" rx="6"></rect>
                </g>
                <path d="M13.3138753,31.265606 C13.2713125,31.2229934 13.2168341,31.2017244 13.1506142,31.2017244 L11.9361682,31.2017244 C11.8556197,30.8088578 11.7041001,30.4678329 11.4815843,30.1790226 L13.1363354,30.1790226 C13.2027294,30.1790226 13.2570586,30.1577287 13.2997706,30.1152156 C13.3421593,30.0726279 13.3634532,30.0181246 13.3634532,29.951855 L13.3634532,29.2272671 C13.3634532,29.1609477 13.3421842,29.1065439 13.2997706,29.0639064 C13.2570088,29.0213685 13.2026796,29 13.1362856,29 L7.2272422,29 C7.1609228,29 7.106519,29.0213685 7.06388155,29.0638816 C7.02136848,29.106519 7,29.1609228 7,29.2272422 L7,30.1718334 C7,30.2333766 7.0224879,30.2866361 7.06746369,30.3316119 C7.11243949,30.3765877 7.16569899,30.3990756 7.2272422,30.3990756 L8.25708344,30.3990756 C9.25607845,30.3990756 9.89056553,30.6665174 10.1604203,31.2016 L7.2272422,31.2016 C7.1609228,31.2016 7.10644437,31.222869 7.06388155,31.2654816 C7.02136848,31.3081439 7,31.3625228 7,31.4288422 L7,32.1533306 C7,32.2196003 7.02126897,32.2740787 7.06388155,32.3165918 C7.106519,32.3592541 7.1610223,32.3804733 7.2272422,32.3804733 L10.2599989,32.3804733 C10.1558182,32.7688373 9.91312806,33.0647124 9.53192834,33.2683224 C9.15070374,33.4719573 8.64773604,33.5737747 8.02270183,33.5737747 L7.2272422,33.5737747 C7.16569899,33.5737747 7.11243949,33.5962875 7.06746369,33.6412384 C7.02246302,33.6862391 7,33.7395235 7,33.8010169 L7,34.7030951 C7,34.7647378 7.02126897,34.8168032 7.06388155,34.8593661 C7.97292497,35.8252511 9.15194754,37.176938 10.6008,38.9147748 C10.6434623,38.9716414 10.7026175,39 10.7783897,39 L12.163286,39 C12.2628149,39 12.3315224,38.9575118 12.3692841,38.8721125 C12.4166231,38.7868874 12.4073444,38.7063887 12.3408509,38.6306164 C10.9584422,36.9354916 9.87170953,35.6665672 9.08097633,34.8237934 C9.88591372,34.7291154 10.5393314,34.4686388 11.0412543,34.0425877 C11.5431026,33.6164868 11.8484554,33.0623989 11.9574372,32.3805977 L13.1506142,32.3805977 C13.2168341,32.3805977 13.2713374,32.3593536 13.3138753,32.3167162 C13.3565377,32.2742031 13.3778813,32.2197247 13.3778813,32.153455 L13.3778813,31.4290412 C13.3778813,31.3626472 13.3565377,31.3082434 13.3138753,31.265606 Z" id="Shape-Copy-2" fill="#FFFFFF" fill-rule="nonzero"></path>
                <path d="M39.5766504,20.7187271 C39.525575,20.6675921 39.4602009,20.6420693 39.380737,20.6420693 L37.9234018,20.6420693 C37.8267437,20.1706294 37.6449201,19.7613994 37.3779012,19.4148271 L39.3636024,19.4148271 C39.4432753,19.4148271 39.5084703,19.3892745 39.5597248,19.3382588 C39.6105912,19.2871535 39.6361438,19.2217496 39.6361438,19.142226 L39.6361438,18.2727205 C39.6361438,18.1931372 39.6106211,18.1278527 39.5597248,18.0766877 C39.5084106,18.0256422 39.4432156,18 39.3635427,18 L32.2726906,18 C32.1931074,18 32.1278228,18.0256422 32.0766579,18.0766579 C32.0256422,18.1278228 32,18.1931074 32,18.2726906 L32,19.4062001 C32,19.4800519 32.0269855,19.5439633 32.0809564,19.5979343 C32.1349274,19.6519053 32.1988388,19.6788907 32.2726906,19.6788907 L33.5085001,19.6788907 C34.7072941,19.6788907 35.4686786,19.9998209 35.7925044,20.64192 L32.2726906,20.64192 C32.1931074,20.64192 32.1277332,20.6674428 32.0766579,20.7185779 C32.0256422,20.7697727 32,20.8350274 32,20.9146107 L32,21.7839968 C32,21.8635204 32.0255228,21.9288945 32.0766579,21.9799101 C32.1278228,22.0311049 32.1932268,22.056568 32.2726906,22.056568 L35.9119987,22.056568 C35.7869819,22.5226048 35.4957537,22.8776549 35.038314,23.1219869 C34.5808445,23.3663488 33.9772832,23.4885297 33.2272422,23.4885297 L32.2726906,23.4885297 C32.1988388,23.4885297 32.1349274,23.515545 32.0809564,23.5694861 C32.0269556,23.6234869 32,23.6874282 32,23.7612203 L32,24.8437141 C32,24.9176853 32.0255228,24.9801639 32.0766579,25.0312393 C33.16751,26.1903013 34.582337,27.8123256 36.32096,29.8977298 C36.3721548,29.9659696 36.4431409,30 36.5340677,30 L38.1959432,30 C38.3153778,30 38.3978268,29.9490142 38.4431409,29.846535 C38.4999478,29.7442648 38.4888133,29.6476664 38.409021,29.5567397 C36.7501306,27.5225899 35.4460514,25.9998806 34.4971716,24.9885521 C35.4630965,24.8749384 36.2471977,24.5623666 36.8495052,24.0511052 C37.4517232,23.5397842 37.8181465,22.8748787 37.9489246,22.0567173 L39.380737,22.0567173 C39.4602009,22.0567173 39.5256049,22.0312243 39.5766504,21.9800594 C39.6278452,21.9290437 39.6534575,21.8636696 39.6534575,21.784146 L39.6534575,20.9148495 C39.6534575,20.8351766 39.6278452,20.7698921 39.5766504,20.7187271 Z" id="Shape-Copy-3" fill="#FFFFFF" fill-rule="nonzero"></path>
                <polyline id="Path-4" stroke="#000000" stroke-width="2" points="21 38.7455028 34.5742461 38.7455028 34.5742461 34"></polyline>
                <polyline id="Path-4-Copy" stroke="#000000" stroke-width="2" transform="translate(27.787123, 11.372751) scale(1, -1) translate(-27.787123, -11.372751) " points="21 13.7455028 34.5742461 13.7455028 34.5742461 9"></polyline>
            </g>
        </g>
    </g>
</svg>