<?xml version="1.0" encoding="UTF-8"?>
<svg width="53px" height="50px" viewBox="0 0 53 50" version="1.1" xmlns="http://www.w3.org/2000/svg" xmlns:xlink="http://www.w3.org/1999/xlink">
    <!-- Generator: Sketch 46.2 (44496) - http://www.bohemiancoding.com/sketch -->
    <title>Group 22</title>
    <desc>Created with Sketch.</desc>
    <defs></defs>
    <g id="Landing-Page-New" stroke="none" stroke-width="1" fill="none" fill-rule="evenodd">
        <g id="Desktop-HD-Copy-11" transform="translate(-1290.000000, -368.000000)">
            <g id="Group-22" transform="translate(1291.000000, 368.000000)">
                <path d="M9.38969056,24.0817677 C5.47961469,23.8046921 1.56640625,24.0261036 1.28320312,28.085674 C1.09440104,30.7920542 1,34.0326141 1,37.8073536 L5.05908203,34.5602833 L13.7294922,34.5602833 C16.429362,34.2347625 17.7792969,32.4662078 17.7792969,29.2546193 C17.7792969,24.4372365 13.2997664,24.3588433 9.38969056,24.0817677 Z" id="Path-5" fill="#DDF9FF"></path>
                <path d="M9.38969056,0.0817677013 C5.47961469,-0.195307886 1.56640625,0.0261036388 1.28320312,4.08567395 C1.09440104,6.79205416 1,10.0326141 1,13.8073536 L5.05908203,10.5602833 L13.7294922,10.5602833 C16.429362,10.2347625 17.7792969,8.46620781 17.7792969,5.25461926 C17.7792969,0.437236451 13.2997664,0.358843288 9.38969056,0.0817677013 Z" id="Path-5-Copy-3" fill="#DDF9FF"></path>
                <path d="M16.2734375,42.2578125 L16.2734375,39.5644531 L20.2578125,39.5644531 L20.2578125,35.0273438 L16.2734375,32.5146484 L13.8818359,24.9472656 L11.6162109,21.6416016 C11.5322266,15.5979818 12.2874349,12.1315104 13.8818359,11.2421875 C15.476237,10.3528646 16.9475911,8.86230469 18.2958984,6.77050781 C27.7626953,5.7281901 32.9296875,5.7281901 33.796875,6.77050781 C35.0976563,8.33398438 38.2314453,11.2421875 39.7705078,11.2421875 C41.3095703,11.2421875 41.3867187,23.2993164 38.2314453,24.123291 C36.1279297,24.6726074 35.0761719,26.3818359 35.0761719,29.2509766 C35.6998698,32.1787109 35.2734375,34.1041667 33.796875,35.0273438 C32.3203125,35.9505208 31.5820312,37.4628906 31.5820312,39.5644531 L35.0761719,39.5644531 L36.5449219,42.2578125 L26.207408,46.1904297 L16.2734375,42.2578125 Z" id="Path-9" fill="#FFFFFF"></path>
                <path d="M8.73046875,49.2460938 C7.98567708,44.4772135 10.5882161,41.2591146 16.5380859,39.5917969 C16.5380859,39.5917969 16.5380859,40.4254557 16.5380859,42.0927734 L25.6386719,46.5693359 L36.7822266,42.0927734 L35.3720703,39.5917969 C40.9378255,40.9641927 43.7825521,43.827474 43.90625,48.1816406 C43.7584635,48.891276 32.0332031,49.2460938 8.73046875,49.2460938 Z" id="Path-6" fill="#FFCA00"></path>
                <path d="M43.3896906,24.0817677 C39.4796147,23.8046921 35.5664062,24.0261036 35.2832031,28.085674 C35.094401,30.7920542 35,34.0326141 35,37.8073536 L39.059082,34.5602833 L47.7294922,34.5602833 C50.429362,34.2347625 51.7792969,32.4662078 51.7792969,29.2546193 C51.7792969,24.4372365 47.2997664,24.3588433 43.3896906,24.0817677 Z" id="Path-5-Copy-2" fill="#DDF9FF" transform="translate(43.389648, 30.903677) scale(-1, 1) translate(-43.389648, -30.903677) "></path>
                <path d="M43.3896906,0.0817677013 C39.4796147,-0.195307886 35.5664062,0.0261036388 35.2832031,4.08567395 C35.094401,6.79205416 35,10.0326141 35,13.8073536 L39.059082,10.5602833 L47.7294922,10.5602833 C50.429362,10.2347625 51.7792969,8.46620781 51.7792969,5.25461926 C51.7792969,0.437236451 47.2997664,0.358843288 43.3896906,0.0817677013 Z" id="Path-5-Copy-4" fill="#DDF9FF" transform="translate(43.389648, 6.903677) scale(-1, 1) translate(-43.389648, -6.903677) "></path>
                <path d="M52,16.3207742 L52,6.19354839 C52,2.77858065 48.989871,0 45.2903226,0 L40.2580645,0 C36.5585161,0 33.5483871,2.77858065 33.5483871,6.19354839 C33.5483871,6.23767742 33.5542581,6.28103226 33.5559355,6.32516129 C31.9649032,5.73135484 30.2547742,5.41935484 28.5312258,5.41935484 L23.4696129,5.41935484 C21.7452258,5.41935484 20.0350968,5.73135484 18.4449032,6.32516129 C18.4457419,6.28103226 18.4516129,6.23767742 18.4516129,6.19354839 C18.4516129,2.77858065 15.4414839,0 11.7419355,0 L6.70967742,0 C3.01012903,0 0,2.77858065 0,6.19354839 L0,16.3207742 L5.32664516,12.3870968 L11.4265806,12.3870968 C10.5367097,14.0686452 10.0645161,15.9096774 10.0645161,17.7925161 C10.0645161,19.68 10.5442581,21.5310968 11.4483871,23.2258065 L6.70967742,23.2258065 C3.01012903,23.2258065 0,26.0043871 0,29.4193548 L0,39.5465806 L5.32664516,35.6129032 L11.7419355,35.6129032 C13.8093548,35.6129032 15.6595484,34.7442581 16.8916129,33.3832258 C17.5525161,34.32 18.3652258,35.132129 19.2903226,35.8033548 L19.2903226,37.9354839 L14.0618065,39.3847742 C10.166,40.491871 7.5483871,43.7620645 7.5483871,47.5246452 L7.5483871,48 L9.22580645,48 L9.22580645,47.5246452 C9.22580645,44.4464516 11.367871,41.7700645 14.5549677,40.8650323 L15.6184516,40.5630968 L14.9474839,43.0389677 L25.48,47.0895484 L26,47.6910968 L26.5208387,47.0903226 L37.0533548,43.0397419 L36.3823871,40.563871 L37.4467097,40.8658065 C40.6329677,41.7700645 42.7741935,44.4464516 42.7741935,47.5246452 L42.7741935,48 L44.4516129,48 L44.4516129,47.5246452 C44.4516129,43.7628387 41.8348387,40.491871 37.9390323,39.3847742 L32.9562581,37.9695484 L32.7096774,37.9649032 L32.7096774,35.8025806 C33.6347742,35.132129 34.4474839,34.3192258 35.1083871,33.3824516 C36.3404516,34.7442581 38.1906452,35.6129032 40.2580645,35.6129032 L46.6733548,35.6129032 L52,39.5465806 L52,29.4193548 C52,26.0043871 48.989871,23.2258065 45.2903226,23.2258065 L40.5516129,23.2258065 C41.4557419,21.5310968 41.9354839,19.6807742 41.9354839,17.7925161 C41.9354839,15.9096774 41.4632903,14.0686452 40.5734194,12.3870968 L46.6733548,12.3870968 L52,16.3207742 Z M23.4687742,6.96774194 L28.5303871,6.96774194 C30.4057419,6.96774194 32.2550968,7.39974194 33.9140645,8.19483871 C34.6353548,10.1357419 36.3706452,11.6407742 38.5353548,12.1726452 C39.6592258,13.872 40.2580645,15.8067097 40.2580645,17.7925161 C40.2580645,19.7845161 39.6483226,21.7316129 38.5051613,23.4472258 C37.9373548,23.5896774 37.4005806,23.7971613 36.9032258,24.0634839 L36.9032258,21.6774194 C36.9032258,18.6898065 34.2688387,16.2580645 31.0322581,16.2580645 L20.9677419,16.2580645 C17.7311613,16.2580645 15.0967742,18.6898065 15.0967742,21.6774194 L15.0967742,24.0634839 C14.5994194,23.7971613 14.0618065,23.5896774 13.4948387,23.4472258 C12.3516774,21.7316129 11.7419355,19.7845161 11.7419355,17.7925161 C11.7419355,15.8059355 12.3407742,13.8712258 13.4638065,12.1726452 C15.6293548,11.6407742 17.3646452,10.1357419 18.0850968,8.19483871 C19.7440645,7.39974194 21.5942581,6.96774194 23.4687742,6.96774194 Z M4.73787097,10.8387097 L1.67741935,13.0985806 L1.67741935,6.19354839 C1.67741935,3.63174194 3.9343871,1.5483871 6.70967742,1.5483871 L11.7419355,1.5483871 C14.5172258,1.5483871 16.7741935,3.63174194 16.7741935,6.19354839 C16.7741935,8.75535484 14.5172258,10.8387097 11.7419355,10.8387097 L4.73787097,10.8387097 Z M11.7419355,34.0645161 L4.73787097,34.0645161 L1.67741935,36.3243871 L1.67741935,29.4193548 C1.67741935,26.8575484 3.9343871,24.7741935 6.70967742,24.7741935 L11.7419355,24.7741935 C14.5172258,24.7741935 16.7741935,26.8575484 16.7741935,29.4193548 C16.7741935,31.9811613 14.5172258,34.0645161 11.7419355,34.0645161 Z M16.9243226,42.1223226 L17.4904516,40.0312258 L18.9917419,39.6046452 L23.2993548,44.5741935 L16.9243226,42.1223226 Z M26,45.2129032 L20.9677419,39.4056774 L20.9677419,38.7096774 L20.9677419,37.9354839 L20.9677419,36.8043871 C22.4874839,37.5344516 24.2018065,37.9354839 26,37.9354839 C27.7981935,37.9354839 29.5125161,37.5344516 31.0322581,36.8043871 L31.0322581,37.9354839 L31.0322581,38.7096774 L31.0322581,39.4056774 L26,45.2129032 Z M33.0082581,39.6046452 L34.5095484,40.0312258 L35.0756774,42.1223226 L28.7006452,44.5741935 L33.0082581,39.6046452 Z M34.1052903,31.8836129 C32.4907742,34.6637419 29.4286452,36.3870968 26,36.3870968 C22.5713548,36.3870968 19.5092258,34.6637419 17.8947097,31.8836129 C18.2511613,31.1272258 18.4516129,30.2949677 18.4516129,29.4193548 C18.4516129,27.8547097 17.8150323,26.427871 16.7741935,25.3362581 L16.7741935,21.6774194 C16.7741935,19.5429677 18.6554194,17.8064516 20.9677419,17.8064516 L31.0322581,17.8064516 C33.3445806,17.8064516 35.2258065,19.5429677 35.2258065,21.6774194 L35.2258065,25.3362581 C34.1849677,26.427871 33.5483871,27.8547097 33.5483871,29.4193548 C33.5483871,30.2949677 33.7488387,31.1272258 34.1052903,31.8836129 Z M45.2903226,24.7741935 C48.0656129,24.7741935 50.3225806,26.8575484 50.3225806,29.4193548 L50.3225806,36.3243871 L47.262129,34.0645161 L40.2580645,34.0645161 C37.4827742,34.0645161 35.2258065,31.9811613 35.2258065,29.4193548 C35.2258065,26.8575484 37.4827742,24.7741935 40.2580645,24.7741935 L45.2903226,24.7741935 Z M40.2580645,10.8387097 C37.4827742,10.8387097 35.2258065,8.75535484 35.2258065,6.19354839 C35.2258065,3.63174194 37.4827742,1.5483871 40.2580645,1.5483871 L45.2903226,1.5483871 C48.0656129,1.5483871 50.3225806,3.63174194 50.3225806,6.19354839 L50.3225806,13.0985806 L47.262129,10.8387097 L40.2580645,10.8387097 Z" id="Shape" fill="#000000" fill-rule="nonzero" transform="translate(26.000000, 24.000000) rotate(-360.000000) translate(-26.000000, -24.000000) "></path>
                <path d="M26,29 C23.7944,29 22,30.7944 22,33 L23.6,33 C23.6,31.6768 24.6768,30.6 26,30.6 C27.3232,30.6 28.4,31.6768 28.4,33 L30,33 C30,30.7944 28.2056,29 26,29 Z" id="Shape" fill="#000000" fill-rule="nonzero" transform="translate(26.000000, 31.000000) rotate(-360.000000) translate(-26.000000, -31.000000) "></path>
                <path d="M23.8095884,24.1127328 C23.8095884,23.3532964 23.2668476,22.7010569 22.4898236,22.4021137 L24.4274084,22.9411173 L25,21.5098138 L19.5725916,20 L19,21.4313035 L21.9877883,22.262456 C21.8457711,22.2390539 21.6992311,22.2254655 21.5481682,22.2254655 C20.3007689,22.2254655 19.2867481,23.0717162 19.2867481,24.1127328 C19.2867481,25.1537494 20.3007689,26 21.5481682,26 C22.7955676,26 23.8095884,25.1537494 23.8095884,24.1127328 Z M21.5481682,24.4901862 C21.299412,24.4901862 21.0958842,24.3203322 21.0958842,24.1127328 C21.0958842,23.9051334 21.299412,23.7352793 21.5481682,23.7352793 C21.7969245,23.7352793 22.0004523,23.9051334 22.0004523,24.1127328 C22.0004523,24.3203322 21.7969245,24.4901862 21.5481682,24.4901862 Z" id="Shape" fill="#000000" fill-rule="nonzero" transform="translate(22.000000, 23.000000) rotate(-360.000000) translate(-22.000000, -23.000000) "></path>
                <path d="M32.4274084,20 L27,21.5098138 L27.5725916,22.9411173 L29.5101764,22.4021137 C28.7331524,22.7010569 28.1904116,23.3532964 28.1904116,24.1127328 C28.1904116,25.1537494 29.2044324,26 30.4518318,26 C31.6992311,26 32.7132519,25.1537494 32.7132519,24.1127328 C32.7132519,23.0717162 31.6992311,22.2254655 30.4518318,22.2254655 C30.3007689,22.2254655 30.1542289,22.2390539 30.0122117,22.262456 L33,21.4313035 L32.4274084,20 Z M30.4518318,23.7352793 C30.700588,23.7352793 30.9041158,23.9051334 30.9041158,24.1127328 C30.9041158,24.3203322 30.700588,24.4901862 30.4518318,24.4901862 C30.2030755,24.4901862 29.9995477,24.3203322 29.9995477,24.1127328 C29.9995477,23.9051334 30.2030755,23.7352793 30.4518318,23.7352793 Z" id="Shape" fill="#000000" fill-rule="nonzero" transform="translate(30.000000, 23.000000) rotate(-360.000000) translate(-30.000000, -23.000000) "></path>
                <path d="M0.5,49 L49.6629942,49" id="Line-6-Copy" stroke="#000000" stroke-width="2" stroke-linecap="square"></path>
            </g>
        </g>
    </g>
</svg>