<?xml version="1.0" encoding="UTF-8"?>
<svg width="49px" height="47px" viewBox="0 0 49 47" version="1.1" xmlns="http://www.w3.org/2000/svg" xmlns:xlink="http://www.w3.org/1999/xlink">
    <!-- Generator: Sketch 46.2 (44496) - http://www.bohemiancoding.com/sketch -->
    <title>list</title>
    <desc>Created with Sketch.</desc>
    <defs></defs>
    <g id="Landing-Page-New" stroke="none" stroke-width="1" fill="none" fill-rule="evenodd">
        <g id="Desktop-HD-Copy-11" transform="translate(-1111.000000, -512.000000)">
            <g id="list" transform="translate(1111.000000, 512.000000)">
                <rect id="Rectangle-14" fill="#FFFFFF" x="0" y="0" width="47" height="42" rx="9"></rect>
                <ellipse id="Oval-16" fill="#50E3C2" cx="37.5" cy="35" rx="8.5" ry="8"></ellipse>
                <path d="M48.7562935,45.6331935 L43.5073822,40.5862746 C45.0427481,39.0359878 45.9871828,36.9829491 45.9871828,34.726223 C45.9871828,29.9145145 41.728433,26 36.4935914,26 C31.2587498,26 27,29.9145145 27,34.726223 C27,39.5379316 31.2587498,43.4516377 36.4935914,43.4516377 C38.6401139,43.4516377 40.6160401,42.7856126 42.2085646,41.6766483 L47.4856155,46.7502406 C47.6579705,46.9159386 47.8892427,47 48.1205149,47 C48.339476,47 48.5575577,46.925638 48.7281539,46.7761056 C49.0790194,46.4673415 49.0922098,45.9556984 48.7562935,45.6331935 Z M28.7587239,34.7254147 C28.7587239,30.8052423 32.228686,27.6157577 36.4935914,27.6157577 C40.7584968,27.6157577 44.2284589,30.8052423 44.2284589,34.7254147 C44.2284589,38.6455872 40.7584968,41.8350718 36.4935914,41.8350718 C32.228686,41.8350718 28.7587239,38.6455872 28.7587239,34.7254147 Z" id="Shape" fill="#000000" fill-rule="nonzero"></path>
                <path d="M24.9,10 C24.4023,10 24,10.447 24,11 C24,11.553 24.4023,12 24.9,12 L41.1,12 C41.5977,12 42,11.553 42,11 C42,10.447 41.5977,10 41.1,10 L24.9,10 Z" id="Shape" fill="#000000" fill-rule="nonzero"></path>
                <path d="M42,23 C42,22.447 41.5977,22 41.1,22 L24.9,22 C24.4023,22 24,22.447 24,23 C24,23.553 24.4023,24 24.9,24 L41.1,24 C41.5977,24 42,23.553 42,23 Z" id="Shape" fill="#000000" fill-rule="nonzero"></path>
                <path d="M19.6872334,6.19282887 C19.3145897,5.9056005 18.7480282,5.94320421 18.4281087,6.2792374 L12.844708,12.1102133 L9.42925382,9.81718685 C9.03605659,9.55316078 8.47575053,9.62276765 8.17906534,9.97720266 C7.88238016,10.3300375 7.96280687,10.8316871 8.35779136,11.0965132 L12.4425744,13.8399842 C12.6025342,13.9479949 12.7910902,14 12.9778588,14 C13.2307562,14 13.4809726,13.9047906 13.6570177,13.7199723 L19.7846391,7.31934014 C20.1063459,6.9849071 20.0625581,6.48085732 19.6872334,6.19282887 Z" id="Shape" fill="#000000" fill-rule="nonzero"></path>
                <path d="M19.6872334,17.1928289 C19.3145897,16.9056005 18.7480282,16.9432042 18.4281087,17.2792374 L12.844708,23.1102133 L9.42925382,20.8171869 C9.03605659,20.5531608 8.47575053,20.6227677 8.17906534,20.9772027 C7.88238016,21.3300375 7.96280687,21.8316871 8.35779136,22.0965132 L12.4425744,24.8399842 C12.6025342,24.9479949 12.7910902,25 12.9778588,25 C13.2307562,25 13.4809726,24.9047906 13.6570177,24.7199723 L19.7846391,18.3193401 C20.1063459,17.9849071 20.0625581,17.4808573 19.6872334,17.1928289 Z" id="Shape" fill="#000000" fill-rule="nonzero"></path>
                <path d="M18.4277787,30.2797091 L12.8445547,36.110133 L9.42920859,33.8170089 C9.0360238,33.5521715 8.47573547,33.6225815 8.17905968,33.9770315 C7.88238388,34.3298814 7.96280804,34.8315523 8.35778004,35.0963897 L12.4424338,37.8399774 C12.6023886,37.9479927 12.7909385,38 12.9777013,38 C13.2305906,38 13.4807991,37.9047865 13.6568387,37.7199604 L19.7842662,31.3198561 C20.1059628,30.9846087 20.06307,30.4797374 19.6877572,30.1924968 C19.3142316,29.9052562 18.7476881,29.9436616 18.4277787,30.2797091 Z" id="Shape" fill="#000000" fill-rule="nonzero"></path>
                <path d="M23.1111111,42.3703704 L10.8231111,42.3703704 C5.83466667,42.3703704 1.77777778,38.6515556 1.77777778,34.0788148 L1.77777778,9.92118519 C1.77777778,5.34844444 5.83466667,1.62962963 10.8231111,1.62962963 L37.1768889,1.62962963 C42.1644444,1.62962963 46.2222222,5.34844444 46.2222222,9.92118519 L46.2222222,26.8888889 C46.2222222,27.3394815 46.6195556,27.7037037 47.1111111,27.7037037 C47.6026667,27.7037037 48,27.3394815 48,26.8888889 L48,9.92118519 C48,4.45051852 43.1448889,0 37.1768889,0 L10.8231111,0 C4.85511111,0 0,4.45051852 0,9.92118519 L0,34.0788148 C0,39.5494815 4.85511111,44 10.8231111,44 L23.1111111,44 C23.6026667,44 24,43.6357778 24,43.1851852 C24,42.7345926 23.6026667,42.3703704 23.1111111,42.3703704 Z" id="Shape" fill="#000000" fill-rule="nonzero"></path>
            </g>
        </g>
    </g>
</svg>