<?xml version="1.0" encoding="UTF-8"?>
<svg width="39px" height="43px" viewBox="0 0 39 43" version="1.1" xmlns="http://www.w3.org/2000/svg" xmlns:xlink="http://www.w3.org/1999/xlink">
    <!-- Generator: Sketch 46.2 (44496) - http://www.bohemiancoding.com/sketch -->
    <title>newspaper</title>
    <desc>Created with Sketch.</desc>
    <defs></defs>
    <g id="Landing-Page-New" stroke="none" stroke-width="1" fill="none" fill-rule="evenodd">
        <g id="Desktop-HD-Copy-11" transform="translate(-939.000000, -512.000000)">
            <g id="newspaper" transform="translate(939.000000, 512.000000)">
                <polygon id="Rectangle-17" fill="#F3F3F3" points="4 1 38 1 38 36.8940492 33.8404499 40 33.8404499 9.72269666 27.2318831 3.36537768 4 3.36537768"></polygon>
                <polygon id="Path-10" fill="#D8D8D8" points="28 4 28 10 34 10"></polygon>
                <polygon id="Rectangle-18" fill="#FFFFFF" points="1 4 27.1915409 4 28.1349677 10.3642578 35 10.3642578 35 42 1 42"></polygon>
                <path d="M35.1,0 L7.02,0 C5.11212,0 3.52638,1.26706667 3.19176,2.9326 C1.37904,3.24005 0,4.69703333 0,6.45 L0,39.4166667 C0,41.3925167 1.74954,43 3.9,43 L31.98,43 C33.88788,43 35.47362,41.7329333 35.80824,40.0674 C37.62096,39.75995 39,38.3029667 39,36.55 L39,3.58333333 C39,1.60748333 37.25046,0 35.1,0 Z M34.32,39.4166667 C34.32,40.6020333 33.27012,41.5666667 31.98,41.5666667 L3.9,41.5666667 C2.60988,41.5666667 1.56,40.6020333 1.56,39.4166667 L1.56,6.45 C1.56,5.26463333 2.60988,4.3 3.9,4.3 L27.3,4.3 L27.3,10.0333333 C27.3,10.42965 27.64866,10.75 28.08,10.75 L34.32,10.75 L34.32,39.4166667 Z M28.86,9.31666667 L28.86,5.31336667 L33.21708,9.31666667 L28.86,9.31666667 Z M37.44,36.55 C37.44,37.4831 36.78558,38.2714333 35.88,38.5681333 L35.88,10.0333333 C35.88,9.83481667 35.79186,9.65565 35.65068,9.52593333 L28.63302,3.07808333 C28.49106,2.94765 28.29606,2.86666667 28.08,2.86666667 L4.82352,2.86666667 C5.14644,2.03461667 6.00444,1.43333333 7.02,1.43333333 L35.1,1.43333333 C36.39012,1.43333333 37.44,2.39796667 37.44,3.58333333 L37.44,36.55 Z" id="Shape" fill="#000000" fill-rule="nonzero"></path>
                <path d="M18,6 C15.7944,6 14,7.5701 14,9.5 C14,11.4299 15.7944,13 18,13 C20.2056,13 22,11.4299 22,9.5 C22,7.5701 20.2056,6 18,6 Z M18,11.6 C16.6768,11.6 15.6,10.6578 15.6,9.5 C15.6,8.3422 16.6768,7.4 18,7.4 C19.3232,7.4 20.4,8.3422 20.4,9.5 C20.4,10.6578 19.3232,11.6 18,11.6 Z" id="Shape" fill="#000000" fill-rule="nonzero"></path>
                <rect id="Rectangle-path" fill="#000000" fill-rule="nonzero" x="4" y="16" width="8" height="1"></rect>
                <rect id="Rectangle-path" fill="#000000" fill-rule="nonzero" x="14" y="16" width="2" height="1"></rect>
                <rect id="Rectangle-path" fill="#000000" fill-rule="nonzero" x="20" y="16" width="8" height="1"></rect>
                <rect id="Rectangle-path" fill="#000000" fill-rule="nonzero" x="30" y="16" width="2" height="1"></rect>
                <rect id="Rectangle-path" fill="#000000" fill-rule="nonzero" x="4" y="19" width="8" height="1"></rect>
                <rect id="Rectangle-path" fill="#000000" fill-rule="nonzero" x="14" y="19" width="2" height="1"></rect>
                <rect id="Rectangle-path" fill="#000000" fill-rule="nonzero" x="20" y="19" width="8" height="1"></rect>
                <rect id="Rectangle-path" fill="#000000" fill-rule="nonzero" x="30" y="19" width="2" height="1"></rect>
                <rect id="Rectangle-path" fill="#000000" fill-rule="nonzero" x="4" y="22" width="8" height="1"></rect>
                <rect id="Rectangle-path" fill="#000000" fill-rule="nonzero" x="14" y="22" width="2" height="1"></rect>
                <rect id="Rectangle-path" fill="#000000" fill-rule="nonzero" x="20" y="22" width="8" height="1"></rect>
                <rect id="Rectangle-path" fill="#000000" fill-rule="nonzero" x="30" y="22" width="2" height="1"></rect>
                <rect id="Rectangle-path" fill="#000000" fill-rule="nonzero" x="4" y="24" width="8" height="1"></rect>
                <rect id="Rectangle-path" fill="#000000" fill-rule="nonzero" x="14" y="24" width="2" height="1"></rect>
                <rect id="Rectangle-path" fill="#000000" fill-rule="nonzero" x="20" y="24" width="8" height="1"></rect>
                <rect id="Rectangle-path" fill="#000000" fill-rule="nonzero" x="30" y="24" width="2" height="1"></rect>
                <rect id="Rectangle-path" fill="#000000" fill-rule="nonzero" x="4" y="29" width="8" height="1"></rect>
                <rect id="Rectangle-path" fill="#000000" fill-rule="nonzero" x="14" y="29" width="2" height="1"></rect>
                <rect id="Rectangle-path" fill="#000000" fill-rule="nonzero" x="20" y="29" width="8" height="1"></rect>
                <rect id="Rectangle-path" fill="#000000" fill-rule="nonzero" x="30" y="29" width="2" height="1"></rect>
                <rect id="Rectangle-path" fill="#000000" fill-rule="nonzero" x="4" y="32" width="8" height="1"></rect>
                <rect id="Rectangle-path" fill="#000000" fill-rule="nonzero" x="14" y="32" width="2" height="1"></rect>
                <rect id="Rectangle-path" fill="#000000" fill-rule="nonzero" x="20" y="32" width="8" height="1"></rect>
                <rect id="Rectangle-path" fill="#000000" fill-rule="nonzero" x="30" y="32" width="2" height="1"></rect>
                <rect id="Rectangle-path" fill="#000000" fill-rule="nonzero" x="4" y="34" width="8" height="1"></rect>
                <rect id="Rectangle-path" fill="#000000" fill-rule="nonzero" x="14" y="34" width="2" height="1"></rect>
                <rect id="Rectangle-path" fill="#000000" fill-rule="nonzero" x="20" y="34" width="8" height="1"></rect>
                <rect id="Rectangle-path" fill="#000000" fill-rule="nonzero" x="30" y="34" width="2" height="1"></rect>
                <rect id="Rectangle-path" fill="#000000" fill-rule="nonzero" x="4" y="37" width="8" height="1"></rect>
                <rect id="Rectangle-path" fill="#000000" fill-rule="nonzero" x="14" y="37" width="2" height="1"></rect>
                <rect id="Rectangle-path" fill="#000000" fill-rule="nonzero" x="20" y="37" width="8" height="1"></rect>
                <rect id="Rectangle-path" fill="#000000" fill-rule="nonzero" x="30" y="37" width="2" height="1"></rect>
            </g>
        </g>
    </g>
</svg>