<?xml version="1.0" encoding="UTF-8"?>
<svg width="48px" height="44px" viewBox="0 0 48 44" version="1.1" xmlns="http://www.w3.org/2000/svg" xmlns:xlink="http://www.w3.org/1999/xlink">
    <!-- Generator: Sketch 46.2 (44496) - http://www.bohemiancoding.com/sketch -->
    <title>Group 23</title>
    <desc>Created with Sketch.</desc>
    <defs></defs>
    <g id="Landing-Page-New" stroke="none" stroke-width="1" fill="none" fill-rule="evenodd">
        <g id="Desktop-HD-Copy-11" transform="translate(-1291.000000, -513.000000)">
            <g id="Group-23" transform="translate(1291.000000, 512.000000)">
                <path d="M16.3896484,18.1806641 L5.54980469,2.33886719 C2.00878906,4.73990885 0.482096354,7.38020833 0.969726562,10.2597656 C1.70117188,14.5791016 6.99707031,27.2138672 14.578125,32.4677734 C22.1591797,37.7216797 31.2177734,44.4873047 35.7724609,44.5576172 C40.3271484,44.6279297 45.7402344,40.734375 46.0839844,40.0263672 C46.313151,39.554362 40.9235026,36.5224609 29.9150391,30.9306641 C28.3372518,32.6031901 26.1942698,32.6031901 23.4860931,30.9306641 C20.7779165,29.258138 17.8085938,26.7641541 14.578125,23.4487124 C13.3704427,21.5460552 13.3704427,20.1923828 14.578125,19.3876953 C15.7858073,18.5830078 16.3896484,18.1806641 16.3896484,18.1806641 Z" id="Path-7" fill="#1ED8FE"></path>
                <g id="phone-call">
                    <path d="M45.7695312,39.7350735 L29,31.1921047 C30.1158854,28.7389797 32.1803385,28.344774 35.1933594,30.0094876 C38.2063802,31.6742011 41.3177083,33.1268842 44.5273438,34.3675367 C47.0885417,35.71803 47.9358724,36.9502428 47.0693359,38.0641751 C46.2027995,39.1781073 45.7695312,39.7350735 45.7695312,39.7350735 Z" id="Path-8" fill="#FFFFFF"></path>
                    <path d="M19.2178227,14.7947232 L2.44640364,6.25175445 C3.56241467,3.79862945 5.62710019,3.40442372 8.64046021,5.06913726 C11.6538202,6.7338508 14.7654986,8.18653386 17.9754953,9.42718645 C20.5369816,10.7776797 21.3844077,12.0098925 20.5177737,13.1238248 C19.6511397,14.237757 19.2178227,14.7947232 19.2178227,14.7947232 Z" id="Path-8-Copy" fill="#FFFFFF" transform="translate(11.646403, 9.427186) rotate(32.000000) translate(-11.646403, -9.427186) "></path>
                    <path d="M47.9672258,37.2147249 C47.8146235,36.1574161 47.1487507,35.2457889 46.1405594,34.7137134 L34.2987435,28.4638454 C32.8483994,27.6983751 31.0084632,27.9212215 29.8246548,29.0062792 L27.4921822,31.1443695 C26.8715096,31.7134118 25.8895468,31.763778 25.2085382,31.261352 C23.3697424,29.9050773 21.5592485,28.4124339 19.8274402,26.8248551 C18.0956319,25.2373714 16.4672864,23.5778545 14.9876036,21.8922043 C14.4395,21.2678542 14.4943415,20.3678207 15.1152215,19.7987784 L17.4475904,17.6606881 C18.6312951,16.5757254 18.8747124,14.8893149 18.0394428,13.5595538 L11.2213741,2.70460492 C10.6408218,1.7803387 9.64641864,1.17005312 8.49298559,1.03016828 C7.33944887,0.889998362 6.20602413,1.24265638 5.38329856,1.99681808 L1.86877997,5.2185406 C-0.58415725,7.46715125 -0.623551871,11.5802594 1.757853,16.8003774 C4.04771722,21.819696 8.32099696,27.3451469 13.7903182,32.3588587 C19.2598467,37.3724755 25.2876385,41.2896309 30.7633872,43.3886636 C33.5665219,44.463173 36.0767886,45.000095 38.1962193,45 C40.3824134,45 42.1525796,44.4285819 43.3981754,43.286886 L46.912694,40.0651635 C47.7353159,39.3110018 48.1197245,38.2720338 47.9672258,37.2147249 L47.9672258,37.2147249 Z M33.5228768,29.6991463 L45.3646927,35.9490143 C45.9503248,36.2580533 46.3370142,36.787563 46.4255484,37.4016498 C46.4999835,37.917 46.3539124,38.4244626 46.0227902,38.8333787 L30.2851572,30.60013 L30.9242831,30.0142673 C31.6117193,29.3841203 32.6805576,29.2545938 33.5228768,29.6991463 L33.5228768,29.6991463 Z M8.28896292,2.44336619 C8.95898249,2.52461723 9.53652838,2.87908084 9.87366341,3.41590788 L16.691732,14.2708567 C17.1769079,15.0431693 17.0355019,16.0227432 16.3480658,16.6527951 L15.7609823,17.1909526 L6.72986893,2.81255952 C7.099038,2.5619642 7.54056878,2.42588059 8.00086383,2.42588059 C8.09634395,2.42588059 8.19265343,2.43167745 8.28896292,2.44336619 Z M42.2984434,42.2788979 C40.3496537,44.0652804 36.3639547,43.9903964 31.3633258,42.0734421 C26.0699327,40.0443518 20.2197277,36.2362914 14.8900501,31.3508706 C9.56037249,26.4653549 5.40610598,21.1025962 3.19254292,16.2504362 C1.10120686,11.6664521 1.01961853,8.01291116 2.96840826,6.22643361 L5.57747258,3.8347071 L14.6221667,18.2348621 L14.0155932,18.7908853 C12.8321995,19.875753 12.7291515,21.5931434 13.7760117,22.7859657 C15.2905275,24.5113387 16.956609,26.2093429 18.7277083,27.8328432 C20.4990149,29.4564385 22.3513914,30.983673 24.2335213,32.3719729 C25.5345805,33.3315904 27.4081058,33.2372252 28.5918105,32.1522625 L29.1452013,31.6449899 L44.9047086,39.8897372 L42.2984434,42.2788979 Z" id="Shape" fill="#000000" fill-rule="nonzero"></path>
                </g>
            </g>
        </g>
    </g>
</svg>