<?xml version="1.0" encoding="UTF-8"?>
<svg width="52px" height="51px" viewBox="0 0 52 51" version="1.1" xmlns="http://www.w3.org/2000/svg" xmlns:xlink="http://www.w3.org/1999/xlink">
    <!-- Generator: Sketch 46.2 (44496) - http://www.bohemiancoding.com/sketch -->
    <title>Group 21</title>
    <desc>Created with Sketch.</desc>
    <defs>
        <path d="M0,0 L0,0 L-2.38806126e-15,0 C7.17970175,-1.31888981e-15 13,5.82029825 13,13 L13,13 L13,13 L13,13 C5.82029825,13 8.79259876e-16,7.17970175 0,1.59204084e-15 L0,0 Z" id="path-1"></path>
        <path d="M0,0 L0,0 L-2.38806126e-15,0 C7.17970175,-1.31888981e-15 13,5.82029825 13,13 L13,13 L13,13 L13,13 C5.82029825,13 8.79259876e-16,7.17970175 0,1.59204084e-15 L0,0 Z" id="path-2"></path>
    </defs>
    <g id="Landing-Page-New" stroke="none" stroke-width="1" fill="none" fill-rule="evenodd">
        <g id="Desktop-HD-Copy-11" transform="translate(-1109.000000, -366.000000)">
            <g id="Group-21" transform="translate(1110.000000, 367.000000)">
                <g id="Group-20" transform="translate(10.000000, 0.000000)">
                    <g id="Group-19" transform="translate(0.000000, 20.000000)">
                        <path d="M24.6213203,25.0147186 L4.82233047,5.21572875" id="Line-4-Copy-2" stroke="#000000" stroke-width="2" stroke-linecap="square" transform="translate(15.000000, 15.393398) rotate(45.000000) translate(-15.000000, -15.393398) "></path>
                        <g id="Group-17" transform="translate(15.000000, 9.000000)">
                            <g id="Rectangle-11-Copy" transform="translate(6.500000, 6.500000) rotate(90.000000) translate(-6.500000, -6.500000) ">
                                <use fill="#7ED321" fill-rule="evenodd" xlink:href="#path-1"></use>
                                <path stroke="#000000" stroke-width="2" d="M11.9551412,11.9551412 C11.9848414,12.2994756 12,12.6479675 12,13 L13,12 C12.6479675,12 12.2994756,11.9848414 11.9551412,11.9551412 Z M1.04485876,1.04485876 C1.01515863,0.700524413 1,0.35203245 1,1.46957616e-15 L1.8369702e-16,1 C0.35203245,1 0.700524413,1.01515863 1.04485876,1.04485876 Z M1.04485876,1.04485876 C6.83868139,1.54459773 11.4554023,6.16131861 11.9551412,11.9551412 C6.16131861,11.4554023 1.54459773,6.83868139 1.04485876,1.04485876 Z"></path>
                            </g>
                        </g>
                        <g id="Group-18" transform="translate(2.000000, 9.000000)">
                            <g id="Rectangle-11-Copy-6" transform="translate(6.500000, 6.500000) rotate(180.000000) translate(-6.500000, -6.500000) ">
                                <use fill="#7ED321" fill-rule="evenodd" xlink:href="#path-2"></use>
                                <path stroke="#000000" stroke-width="2" d="M11.9551412,11.9551412 C11.9848414,12.2994756 12,12.6479675 12,13 L13,12 C12.6479675,12 12.2994756,11.9848414 11.9551412,11.9551412 Z M1.04485876,1.04485876 C1.01515863,0.700524413 1,0.35203245 1,1.46957616e-15 L1.8369702e-16,1 C0.35203245,1 0.700524413,1.01515863 1.04485876,1.04485876 Z M1.04485876,1.04485876 C6.83868139,1.54459773 11.4554023,6.16131861 11.9551412,11.9551412 C6.16131861,11.4554023 1.54459773,6.83868139 1.04485876,1.04485876 Z"></path>
                            </g>
                        </g>
                    </g>
                    <g id="Group-9-Copy" transform="translate(5.000000, 0.000000)" stroke="#000000" stroke-width="2" fill="#FFFFFF">
                        <circle id="Oval-11" cx="5.83333333" cy="9.16666667" r="5.83333333"></circle>
                        <circle id="Oval-11-Copy" cx="14.1666667" cy="9.16666667" r="5.83333333"></circle>
                        <circle id="Oval-11" cx="10" cy="7" r="7"></circle>
                    </g>
                    <path d="M15.1008247,18 C15.6488396,18.1537548 17.4944936,18.426993 20.6377868,18.8197145 C25.3527265,19.4087968 26.9425793,23.1610831 27,23.2553054 C25.7153887,22.1334231 21.1914456,22.4106838 18.1441204,21.7177253 C16.1125703,21.2557529 15.0981384,20.0165112 15.1008247,18 Z M14.8991753,18 C14.9018616,20.0165112 13.8874297,21.2557529 11.8558796,21.7177253 C8.8085544,22.4106838 4.28461127,22.1334231 3,23.2553054 C3.05742067,23.1610831 4.64727347,19.4087968 9.36221323,18.8197145 C12.5055064,18.426993 14.3511604,18.1537548 14.8991753,18 Z" id="Combined-Shape-Copy-2" stroke="#000000" stroke-width="2" fill="#7ED321" stroke-linejoin="round"></path>
                    <path d="M15.1008247,9 C15.6488396,9.29257062 17.4944936,9.81249885 20.6377868,10.5597847 C25.3527265,11.6807135 26.9425793,18.8207102 27,19 C25.7153887,16.8652387 21.1914456,17.3928211 18.1441204,16.0742326 C16.1125703,15.1951736 15.0981384,12.8370961 15.1008247,9 Z M14.8991753,9 C14.9018616,12.8370961 13.8874297,15.1951736 11.8558796,16.0742326 C8.8085544,17.3928211 4.28461127,16.8652387 3,19 C3.05742067,18.8207102 4.64727347,11.6807135 9.36221323,10.5597847 C12.5055064,9.81249885 14.3511604,9.29257062 14.8991753,9 Z" id="Combined-Shape-Copy-3" stroke="#000000" stroke-width="2" fill="#7ED321" stroke-linejoin="round" transform="translate(15.000000, 14.000000) scale(1, -1) translate(-15.000000, -14.000000) "></path>
                </g>
                <path d="M0.5,49 L49.6629942,49" id="Line-6" stroke="#000000" stroke-width="2" stroke-linecap="square"></path>
            </g>
        </g>
    </g>
</svg>